<svg xmlns="http://www.w3.org/2000/svg" version="1.1" xmlns:xlink="http://www.w3.org/1999/xlink" xmlns:svgjs="http://svgjs.dev/svgjs" width="1500" height="443" viewBox="0 0 1500 443"><g transform="matrix(1,0,0,1,-0.9090909090909918,-1.4840509156624933)"><svg viewBox="0 0 396 117" data-background-color="#0a0a0a" preserveAspectRatio="xMidYMid meet" height="443" width="1500" xmlns="http://www.w3.org/2000/svg" xmlns:xlink="http://www.w3.org/1999/xlink"><g id="tight-bounds" transform="matrix(1,0,0,1,0.2400000000000091,0.39195024183410965)"><svg viewBox="0 0 395.52 116.2160995163318" height="116.2160995163318" width="395.52"><g><svg viewBox="0 0 557.2075019965112 163.72492542291968" height="116.2160995163318" width="395.52"><g transform="matrix(1,0,0,1,161.68750199651123,22.627685062067776)"><svg viewBox="0 0 395.52 118.46955529878413" height="118.46955529878413" width="395.52"><g id="textblocktransform"><svg viewBox="0 0 395.52 118.46955529878413" height="118.46955529878413" width="395.52" id="textblock"><g><svg viewBox="0 0 395.52 70.26347287950492" height="70.26347287950492" width="395.52"><g transform="matrix(1,0,0,1,0,0)"><svg width="395.52" viewBox="2.3 -36.23 206.01 36.61" height="70.26347287950492" data-palette-color="#d92424"><path d="M37.63-17.9L37.63-17.9Q37.63-13.88 36.35-10.51 35.08-7.15 32.75-4.73 30.43-2.3 27.16-0.96 23.9 0.38 19.95 0.38L19.95 0.38Q16 0.38 12.75-0.96 9.5-2.3 7.18-4.73 4.85-7.15 3.58-10.51 2.3-13.88 2.3-17.9L2.3-17.9Q2.3-21.93 3.58-25.29 4.85-28.65 7.18-31.09 9.5-33.52 12.75-34.88 16-36.23 19.95-36.23L19.95-36.23Q23.9-36.23 27.16-34.88 30.43-33.52 32.75-31.09 35.08-28.65 36.35-25.29 37.63-21.93 37.63-17.9ZM32.65-17.9L32.65-17.9Q32.65-21.2 31.75-23.83 30.85-26.45 29.2-28.26 27.55-30.08 25.2-31.05 22.85-32.02 19.95-32.02L19.95-32.02Q17.07-32.02 14.73-31.05 12.38-30.08 10.71-28.26 9.05-26.45 8.15-23.83 7.25-21.2 7.25-17.9L7.25-17.9Q7.25-14.6 8.15-11.99 9.05-9.38 10.71-7.56 12.38-5.75 14.73-4.79 17.07-3.83 19.95-3.83L19.95-3.83Q22.85-3.83 25.2-4.79 27.55-5.75 29.2-7.56 30.85-9.38 31.75-11.99 32.65-14.6 32.65-17.9ZM53.25-14.95L49.57-14.95 49.57 0 44.75 0 44.75-35.83 54.87-35.83Q58.27-35.83 60.75-35.14 63.22-34.45 64.84-33.15 66.45-31.85 67.22-30.01 68-28.18 68-25.9L68-25.9Q68-24 67.4-22.35 66.8-20.7 65.66-19.39 64.52-18.07 62.89-17.15 61.25-16.23 59.17-15.75L59.17-15.75Q60.07-15.23 60.77-14.23L60.77-14.23 71.22 0 66.92 0Q65.6 0 64.97-1.03L64.97-1.03 55.67-13.83Q55.25-14.43 54.75-14.69 54.25-14.95 53.25-14.95L53.25-14.95ZM49.57-32L49.57-18.48 54.65-18.48Q56.77-18.48 58.39-18.99 60-19.5 61.09-20.44 62.17-21.38 62.72-22.68 63.27-23.98 63.27-25.55L63.27-25.55Q63.27-28.75 61.16-30.38 59.05-32 54.87-32L54.87-32 49.57-32ZM86.9 0L72.3-35.83 76.17-35.83Q76.82-35.83 77.22-35.5 77.62-35.18 77.82-34.68L77.82-34.68 87.95-9.4Q88.3-8.55 88.58-7.55 88.87-6.55 89.15-5.48L89.15-5.48Q89.37-6.55 89.63-7.55 89.9-8.55 90.25-9.4L90.25-9.4 100.32-34.68Q100.5-35.1 100.92-35.46 101.35-35.83 101.97-35.83L101.97-35.83 105.87-35.83 91.27 0 86.9 0ZM122.19-35.83L136.52 0 132.77 0Q132.12 0 131.72-0.33 131.32-0.65 131.12-1.15L131.12-1.15 127.77-9.8 111.69-9.8 108.34-1.15Q108.17-0.7 107.74-0.35 107.32 0 106.69 0L106.69 0 102.94 0 117.27-35.83 122.19-35.83ZM118.67-27.85L113.04-13.3 126.42-13.3 120.79-27.88Q120.24-29.23 119.72-31.25L119.72-31.25Q119.44-30.23 119.18-29.36 118.92-28.5 118.67-27.85L118.67-27.85ZM143.54-35.83L143.54-35.83Q144.19-35.83 144.5-35.66 144.81-35.5 145.22-35L145.22-35 165.97-8Q165.89-8.65 165.87-9.26 165.84-9.88 165.84-10.45L165.84-10.45 165.84-35.83 170.09-35.83 170.09 0 167.64 0Q167.06 0 166.68-0.2 166.29-0.4 165.91-0.88L165.91-0.88 145.19-27.85Q145.24-27.23 145.26-26.63 145.29-26.03 145.29-25.53L145.29-25.53 145.29 0 141.04 0 141.04-35.83 143.54-35.83ZM193.99-35.83L208.31 0 204.56 0Q203.91 0 203.51-0.33 203.11-0.65 202.91-1.15L202.91-1.15 199.56-9.8 183.49-9.8 180.14-1.15Q179.96-0.7 179.54-0.35 179.11 0 178.49 0L178.49 0 174.74 0 189.06-35.83 193.99-35.83ZM190.46-27.85L184.84-13.3 198.21-13.3 192.59-27.88Q192.04-29.23 191.51-31.25L191.51-31.25Q191.24-30.23 190.98-29.36 190.71-28.5 190.46-27.85L190.46-27.85Z" opacity="1" transform="matrix(1,0,0,1,0,0)" fill="#d92424" class="wordmark-text-0" data-fill-palette-color="primary" id="text-0"></path></svg></g></svg></g><g transform="matrix(1,0,0,1,247.88664153159544,86.85099250300692)"><svg viewBox="0 0 147.63335846840454 31.618562795777212" height="31.618562795777212" width="147.63335846840454"><g transform="matrix(1,0,0,1,0,0)"><svg width="147.63335846840454" viewBox="3.0999999999999996 -35.77 169.02 36.2" height="31.618562795777212" data-palette-color="#d92424"><path d="M20.45-1.68L20.45-1.68Q22.28-1.68 23.78-1.86 25.28-2.05 26.56-2.43 27.85-2.8 29.01-3.34 30.18-3.88 31.35-4.55L31.35-4.55 31.35-14.08 24.55-14.08Q24.28-14.08 24.09-14.25 23.9-14.43 23.9-14.65L23.9-14.65 23.9-16.05 33.68-16.05 33.68-3.48Q32.35-2.55 30.93-1.83 29.5-1.1 27.88-0.61 26.25-0.13 24.38 0.14 22.5 0.4 20.28 0.4L20.28 0.4Q16.45 0.4 13.29-0.89 10.13-2.18 7.86-4.54 5.6-6.9 4.35-10.25 3.1-13.6 3.1-17.7L3.1-17.7Q3.1-21.8 4.35-25.14 5.6-28.48 7.9-30.84 10.2-33.2 13.49-34.49 16.78-35.77 20.85-35.77L20.85-35.77Q22.88-35.77 24.59-35.5 26.3-35.23 27.78-34.69 29.25-34.15 30.53-33.36 31.8-32.58 32.98-31.55L32.98-31.55 32.3-30.45Q32.08-30.08 31.68-30.08L31.68-30.08Q31.45-30.08 31.25-30.18L31.25-30.18Q30.88-30.33 30.16-30.88 29.45-31.43 28.24-32.02 27.03-32.63 25.2-33.1 23.38-33.58 20.78-33.58L20.78-33.58Q17.32-33.58 14.55-32.48 11.78-31.38 9.81-29.33 7.85-27.28 6.79-24.33 5.73-21.38 5.73-17.7L5.73-17.7Q5.73-13.95 6.8-10.98 7.88-8 9.81-5.94 11.75-3.88 14.46-2.78 17.18-1.68 20.45-1.68ZM50.6-16L45.97-16 45.97 0 43.42 0 43.42-35.38 52.45-35.38Q58.57-35.38 61.6-33.01 64.62-30.65 64.62-26.08L64.62-26.08Q64.62-24.05 63.92-22.38 63.22-20.7 61.91-19.44 60.6-18.18 58.75-17.36 56.9-16.55 54.57-16.3L54.57-16.3Q55.17-15.93 55.65-15.3L55.65-15.3 67.82 0 65.6 0Q65.2 0 64.91-0.15 64.62-0.3 64.35-0.65L64.35-0.65 53.02-15Q52.6-15.55 52.11-15.78 51.62-16 50.6-16L50.6-16ZM45.97-33.35L45.97-17.9 52.12-17.9Q54.47-17.9 56.34-18.46 58.2-19.03 59.49-20.08 60.77-21.13 61.45-22.6 62.12-24.08 62.12-25.93L62.12-25.93Q62.12-29.7 59.65-31.53 57.17-33.35 52.45-33.35L52.45-33.35 45.97-33.35ZM104.7-17.7L104.7-17.7Q104.7-13.6 103.47-10.26 102.25-6.93 100.02-4.56 97.8-2.2 94.7-0.91 91.6 0.38 87.82 0.38L87.82 0.38Q84.1 0.38 81-0.91 77.9-2.2 75.67-4.56 73.45-6.93 72.21-10.26 70.97-13.6 70.97-17.7L70.97-17.7Q70.97-21.78 72.21-25.11 73.45-28.45 75.67-30.81 77.9-33.18 81-34.48 84.1-35.77 87.82-35.77L87.82-35.77Q91.6-35.77 94.7-34.49 97.8-33.2 100.02-30.83 102.25-28.45 103.47-25.11 104.7-21.78 104.7-17.7ZM102.05-17.7L102.05-17.7Q102.05-21.4 101.02-24.35 100-27.3 98.13-29.35 96.27-31.4 93.65-32.49 91.02-33.58 87.82-33.58L87.82-33.58Q84.67-33.58 82.06-32.49 79.45-31.4 77.56-29.35 75.67-27.3 74.63-24.35 73.6-21.4 73.6-17.7L73.6-17.7Q73.6-13.98 74.63-11.04 75.67-8.1 77.56-6.05 79.45-4 82.06-2.93 84.67-1.85 87.82-1.85L87.82-1.85Q91.02-1.85 93.65-2.93 96.27-4 98.13-6.05 100-8.1 101.02-11.04 102.05-13.98 102.05-17.7ZM126.09-1.83L126.09-1.83Q128.64-1.83 130.66-2.71 132.67-3.6 134.07-5.18 135.47-6.75 136.21-8.89 136.94-11.03 136.94-13.5L136.94-13.5 136.94-35.38 139.49-35.38 139.49-13.5Q139.49-10.58 138.57-8.04 137.64-5.5 135.91-3.61 134.17-1.73 131.68-0.65 129.19 0.43 126.09 0.43L126.09 0.43Q122.99 0.43 120.51-0.65 118.02-1.73 116.28-3.61 114.54-5.5 113.62-8.04 112.69-10.58 112.69-13.5L112.69-13.5 112.69-35.38 115.27-35.38 115.27-13.53Q115.27-11.05 116.01-8.91 116.74-6.78 118.13-5.2 119.52-3.63 121.53-2.73 123.54-1.83 126.09-1.83ZM159.57-14.25L152.99-14.25 152.99 0 150.44 0 150.44-35.38 159.57-35.38Q165.79-35.38 168.95-32.65 172.12-29.93 172.12-24.88L172.12-24.88Q172.12-22.55 171.25-20.6 170.39-18.65 168.77-17.24 167.14-15.83 164.82-15.04 162.49-14.25 159.57-14.25L159.57-14.25ZM152.99-33.35L152.99-16.3 159.57-16.3Q161.92-16.3 163.77-16.95 165.62-17.6 166.9-18.75 168.19-19.9 168.88-21.46 169.57-23.03 169.57-24.88L169.57-24.88Q169.57-28.95 167.05-31.15 164.54-33.35 159.57-33.35L159.57-33.35 152.99-33.35Z" opacity="1" transform="matrix(1,0,0,1,0,0)" fill="#d92424" class="slogan-text-1" data-fill-palette-color="secondary" id="text-1"></path></svg></g></svg></g></svg></g></svg></g><g><svg viewBox="0 0 145.09998237300923 163.72492542291968" height="163.72492542291968" width="145.09998237300923"><g><svg xmlns="http://www.w3.org/2000/svg" xmlns:xlink="http://www.w3.org/1999/xlink" version="1.1" x="0" y="0" viewBox="6.6 1.5 76.80000000000001 86.658" enable-background="new 0 0 90 90" xml:space="preserve" height="163.72492542291968" width="145.09998237300923" class="icon-icon-0" data-fill-palette-color="accent" id="icon-0"><polygon points="83.4,66.608 46.295,88.158 46.295,46.138 83.4,24.59 " fill="#d92424" data-fill-palette-color="accent"></polygon><polygon points="6.6,66.608 43.705,88.158 43.705,46.138 6.6,24.59 " fill="#d92424" data-fill-palette-color="accent"></polygon><polygon points="45.099,43.868 7.909,22.464 44.325,1.5 81.515,22.904 " fill="#d92424" data-fill-palette-color="accent"></polygon></svg></g></svg></g></svg></g><defs></defs></svg><rect width="395.52" height="116.2160995163318" fill="none" stroke="none" visibility="hidden"></rect></g></svg></g></svg>